<svg width="100" height="100" viewBox="0 0 100 100" fill="none" xmlns="http://www.w3.org/2000/svg">
<path fill-rule="evenodd" clip-rule="evenodd" d="M100 50C100 77.6142 77.6142 100 50 100C22.3858 100 0 77.6142 0 50C0 22.3858 22.3858 0 50 0C77.6142 0 100 22.3858 100 50ZM70.1516 34.8483C71.6161 36.3128 71.6161 38.6872 70.1516 40.1516L45.1517 65.1517C43.6872 66.6161 41.3128 66.6161 39.8483 65.1517L29.8483 55.1517C28.3839 53.6872 28.3839 51.3128 29.8483 49.8483C31.3128 48.3839 33.6872 48.3839 35.1517 49.8483L42.5 57.1967L53.6742 46.0225L64.8483 34.8483C66.3128 33.3839 68.6872 33.3839 70.1516 34.8483Z" fill="white"/>
</svg>
