<svg width="25" height="26" viewBox="0 0 25 26" fill="none" xmlns="http://www.w3.org/2000/svg">
<path d="M12.1094 0.890625C5.41992 0.890625 0 6.31055 0 13C0 19.6895 5.41992 25.1094 12.1094 25.1094C18.7988 25.1094 24.2188 19.6895 24.2188 13C24.2188 6.31055 18.7988 0.890625 12.1094 0.890625ZM14.8975 17.9854L10.5908 14.8555C10.4395 14.7432 10.3516 14.5674 10.3516 14.3818V6.16406C10.3516 5.8418 10.6152 5.57812 10.9375 5.57812H13.2812C13.6035 5.57812 13.8672 5.8418 13.8672 6.16406V12.8877L16.9678 15.1436C17.2314 15.334 17.2852 15.7002 17.0947 15.9639L15.7178 17.8584C15.5273 18.1172 15.1611 18.1758 14.8975 17.9854Z" fill="white"/>
</svg>
