<svg width="750" height="750" viewBox="0 0 750 750" fill="none" xmlns="http://www.w3.org/2000/svg">
<g clip-path="url(#clip0_644_533)">
<path d="M475.313 687.5H274.688C251.614 687.509 229.349 679.002 212.159 663.611C194.969 648.221 184.063 627.028 181.531 604.094L125.187 97.2188C124.699 92.849 125.139 88.4254 126.478 84.2371C127.816 80.0488 130.023 76.1901 132.955 72.9133C135.887 69.6364 139.477 67.0151 143.491 65.2207C147.505 63.4263 151.853 62.4992 156.25 62.5H593.75C598.144 62.4997 602.489 63.426 606.5 65.2186C610.512 67.0111 614.101 69.6295 617.032 72.9029C619.964 76.1762 622.172 80.031 623.512 84.2155C624.853 88.4 625.296 92.8201 624.813 97.1875L568.438 604.094C565.906 627.022 555.005 648.211 537.821 663.601C520.638 678.991 498.38 687.501 475.313 687.5Z" fill="#9CCBEF"/>
<path d="M568.469 604.094L607.844 250H142.188L181.531 604.094C184.063 627.028 194.969 648.221 212.159 663.611C229.349 679.002 251.614 687.509 274.688 687.5H475.312C498.386 687.509 520.651 679.002 537.841 663.611C555.031 648.221 565.937 627.028 568.469 604.094Z" fill="#57C6FF"/>
</g>
<defs>
<clipPath id="clip0_644_533">
<rect width="750" height="750" fill="white"/>
</clipPath>
</defs>
</svg>
