<svg width="150" height="150" viewBox="0 0 150 150" fill="none" xmlns="http://www.w3.org/2000/svg">
<rect width="150" height="150" rx="75" fill="#FFFEFE"/>
<path d="M75.75 79.6875C87.3955 79.6875 96.8438 70.2393 96.8438 58.5938C96.8438 46.9482 87.3955 37.5 75.75 37.5C64.1045 37.5 54.6562 46.9482 54.6562 58.5938C54.6562 70.2393 64.1045 79.6875 75.75 79.6875ZM94.5 84.375H86.4287C83.1768 85.8691 79.5586 86.7188 75.75 86.7188C71.9414 86.7188 68.3379 85.8691 65.0713 84.375H57C46.6436 84.375 38.25 92.7686 38.25 103.125V105.469C38.25 109.351 41.3994 112.5 45.2812 112.5H106.219C110.101 112.5 113.25 109.351 113.25 105.469V103.125C113.25 92.7686 104.856 84.375 94.5 84.375Z" fill="url(#paint0_linear_868_1145)"/>
<defs>
<linearGradient id="paint0_linear_868_1145" x1="75.75" y1="37.5" x2="75.75" y2="112.5" gradientUnits="userSpaceOnUse">
<stop stop-color="#4ACCFF"/>
<stop offset="1" stop-color="#00A6FB"/>
</linearGradient>
</defs>
</svg>
