<svg width="230" height="268" viewBox="0 0 230 268" fill="none" xmlns="http://www.w3.org/2000/svg">
<g clip-path="url(#clip0_2_97)">
<path d="M199.558 260.096C200.438 260.151 200.925 259.065 200.259 258.433L200.192 258.171C200.201 258.15 200.21 258.129 200.219 258.109C201.109 256.002 204.127 256.016 205.01 258.126C205.793 259.999 206.791 261.875 207.036 263.855C207.147 264.73 207.097 265.62 206.902 266.478C208.738 262.498 209.704 258.152 209.704 253.781C209.704 252.683 209.643 251.584 209.519 250.489C209.418 249.593 209.277 248.702 209.095 247.82C208.113 243.051 205.985 238.508 202.916 234.713C201.44 233.913 200.21 232.662 199.467 231.162C199.2 230.621 198.99 230.039 198.891 229.447C199.059 229.468 199.524 226.931 199.398 226.775C199.632 226.423 200.051 226.247 200.306 225.904C201.577 224.193 203.328 224.492 204.243 226.816C206.195 227.794 206.214 229.416 205.016 230.976C204.254 231.969 204.149 233.312 203.48 234.375C203.549 234.462 203.62 234.547 203.689 234.634C204.951 236.24 206.043 237.967 206.963 239.781C206.703 237.765 207.087 235.336 207.741 233.771C208.486 231.987 209.883 230.485 211.113 228.943C212.59 227.091 215.619 227.899 215.879 230.247C215.881 230.27 215.884 230.293 215.886 230.315C215.704 230.418 215.525 230.526 215.35 230.641C214.353 231.295 214.697 232.829 215.879 233.01L215.906 233.014C215.84 233.667 215.727 234.314 215.562 234.951C217.139 241.006 213.733 243.211 208.87 243.31C208.762 243.365 208.658 243.419 208.55 243.471C209.043 244.848 209.437 246.26 209.729 247.692C209.99 248.956 210.172 250.235 210.274 251.519C210.4 253.139 210.389 254.767 210.252 256.384L210.26 256.327C210.609 254.546 211.584 252.882 212.999 251.729C215.107 250.011 218.084 249.378 220.358 247.997C221.453 247.332 222.856 248.191 222.664 249.451L222.655 249.511C222.317 249.648 221.986 249.806 221.667 249.984C221.484 250.086 221.305 250.195 221.131 250.309C220.133 250.964 220.478 252.498 221.659 252.679L221.686 252.683C221.706 252.685 221.722 252.688 221.741 252.691C221.16 254.059 220.351 255.33 219.338 256.425C218.352 261.711 214.115 262.212 209.583 260.673H209.58C209.084 262.815 208.361 264.907 207.43 266.901H199.75C199.723 266.817 199.698 266.729 199.673 266.644C200.383 266.688 201.099 266.647 201.798 266.519C201.228 265.825 200.659 265.126 200.089 264.432C200.075 264.418 200.064 264.404 200.053 264.391C199.764 264.036 199.472 263.683 199.183 263.328L199.183 263.328C199.165 262.238 199.297 261.151 199.558 260.096Z" fill="#F2F2F2"/>
<path d="M33.0684 260.096C32.1879 260.151 31.7013 259.065 32.3674 258.433L32.4337 258.171C32.425 258.15 32.4162 258.129 32.4074 258.109C31.517 256.002 28.4993 256.016 27.6164 258.126C26.8329 259.999 25.8352 261.875 25.5896 263.855C25.4795 264.73 25.529 265.62 25.7245 266.478C23.8884 262.498 22.9222 258.152 22.9222 253.781C22.9222 252.683 22.9828 251.584 23.1067 250.489C23.2085 249.593 23.3489 248.702 23.5306 247.82C24.5133 243.051 26.6411 238.508 29.7103 234.713C31.1858 233.913 32.4162 232.662 33.1594 231.162C33.4264 230.621 33.6357 230.039 33.7348 229.447C33.5668 229.468 33.1016 226.931 33.2283 226.775C32.9943 226.423 32.5754 226.247 32.3199 225.904C31.0489 224.193 29.2977 224.492 28.3835 226.816C26.4306 227.794 26.4117 229.416 27.61 230.976C28.3724 231.969 28.4771 233.312 29.146 234.375C29.0772 234.462 29.0056 234.547 28.9368 234.634C27.6749 236.24 26.5834 237.967 25.6633 239.781C25.9233 237.765 25.5394 235.336 24.8849 233.771C24.1398 231.987 22.7433 230.485 21.5136 228.943C20.0364 227.091 17.0073 227.899 16.7471 230.247C16.7446 230.27 16.7421 230.293 16.7397 230.315C16.9224 230.418 17.1013 230.526 17.2761 230.641C18.2732 231.295 17.9286 232.829 16.7472 233.01L16.7204 233.014C16.7865 233.667 16.8994 234.314 17.0645 234.951C15.4869 241.006 18.8929 243.211 23.7563 243.31C23.8636 243.365 23.9682 243.419 24.0756 243.471C23.5829 244.848 23.1892 246.26 22.8975 247.692C22.6359 248.956 22.4543 250.235 22.3524 251.519C22.2258 253.139 22.2368 254.767 22.3745 256.384L22.3662 256.327C22.0166 254.546 21.0421 252.882 19.6273 251.729C17.5195 250.011 14.5417 249.378 12.2678 247.997C11.1732 247.332 9.77054 248.191 9.96158 249.451L9.97088 249.511C10.3095 249.648 10.6398 249.806 10.9591 249.984C11.1417 250.086 11.3207 250.195 11.4955 250.309C12.4926 250.964 12.148 252.498 10.9666 252.679L10.9398 252.683C10.9205 252.685 10.904 252.688 10.8848 252.691C11.4656 254.059 12.2749 255.33 13.2878 256.425C14.2743 261.711 18.5112 262.212 23.0433 260.673H23.0461C23.5416 262.815 24.2655 264.907 25.196 266.901H32.8759C32.9035 266.817 32.9282 266.729 32.953 266.644C32.2428 266.688 31.5271 266.647 30.8279 266.519C31.3977 265.825 31.9675 265.126 32.5373 264.432C32.5511 264.418 32.5621 264.404 32.5731 264.391C32.8621 264.036 33.1539 263.683 33.443 263.328L33.4431 263.328C33.4612 262.238 33.3293 261.151 33.0684 260.096Z" fill="#F2F2F2"/>
<path d="M165.092 257.815L169.616 257.777L171.618 240.06L164.942 240.115L165.092 257.815Z" fill="#A0616A"/>
<path d="M178.695 263.31L171.47 258.447L171.443 255.235L169.89 255.338L165.074 255.668L163.893 255.746L163.036 267.099L166.43 267.068L167.008 263.885L168.583 267.052L177.576 266.978C178.693 266.968 179.591 266.058 179.581 264.953C179.575 264.294 179.244 263.681 178.695 263.31Z" fill="#2F2E41"/>
<path d="M142.078 257.815L146.602 257.777L148.604 240.06L141.928 240.115L142.078 257.815Z" fill="#A0616A"/>
<path d="M155.681 263.31L148.456 258.447L148.429 255.235L146.875 255.338L142.06 255.668L140.879 255.746L140.022 267.099L143.416 267.068L143.994 263.885L145.569 267.052L154.562 266.978C155.679 266.968 156.577 266.058 156.567 264.953C156.561 264.294 156.23 263.681 155.681 263.31Z" fill="#2F2E41"/>
<path d="M177.751 21.8997C176.428 24.1083 177.159 26.9632 179.385 28.2761C180.405 28.8777 181.56 29.0466 182.641 28.8455L182.646 28.8502L188.457 35.1681L195.285 32.7127L186.327 23.0051L186.296 23.0382C185.985 21.9214 185.259 20.9167 184.176 20.2779C181.951 18.9649 179.074 19.6911 177.751 21.8997Z" fill="#A0616A"/>
<path d="M182.842 114.567L164.507 115.141L147.137 118.972C147.137 118.972 148.874 121.079 143.084 126.825C143.084 126.825 135.364 140.232 140.768 153.256L142.282 187.32C142.282 187.32 143.574 190.018 142.41 190.192C141.246 190.365 141.329 192.385 142.566 193.702C143.803 195.018 142.681 196.275 142.681 196.275C145.063 197.852 143.306 202.097 143.084 205.353C143.084 205.353 136.331 242.077 141.491 253.766L148.31 254.189L159.848 205.777L165.472 153.639L168.174 204.97C168.174 204.97 157.837 240.202 164.365 254.189L171.75 253.766L184.386 204.97C184.386 204.97 186.513 182.808 187.908 163.643C188.01 162.241 187.423 159.078 188.201 159.496C188.979 159.914 187.016 156.582 188.424 156.133C189.831 155.684 187.463 152.216 188.647 152.47C189.831 152.724 187.889 124.892 187.7 122.272C186.928 111.546 182.842 114.567 182.842 114.567Z" fill="#2F2E41"/>
<path d="M173.233 69.2984C171.284 69.2986 169.403 68.5485 167.957 67.1436C166.018 65.259 165.249 62.5724 165.901 59.9573C166.653 56.9457 169.14 54.7288 172.237 54.309L197.905 50.8304L184.719 32.4339L192.136 28.6983L211.375 50.6179C212.72 52.1513 213.168 54.228 212.572 56.1734C211.975 58.1187 210.439 59.5965 208.461 60.1269L175.241 69.032C174.573 69.2108 173.899 69.2984 173.233 69.2984Z" fill="#E6E6E6"/>
<path d="M189.224 122.231L142.769 124.346C141.493 122.423 141.839 119.532 143.626 115.911C150.372 102.242 145.248 76.3821 141.802 62.9167C140.835 59.1387 143.431 55.3828 147.339 54.9949L151.719 54.5603L155.768 42.295H169.948L175.831 48.9645L185.814 54.9832C183.997 73.5586 176.254 99.7888 187.285 112.943C189.697 115.82 190.381 118.931 189.224 122.231Z" fill="#E6E6E6"/>
<path d="M161.991 40.5204C160.916 40.9148 159.817 41.2853 158.672 41.562C157.185 41.9216 156.346 42.0883 154.911 41.5356C154.861 41.5162 154.812 41.497 154.767 41.4781C149.407 39.2594 145.606 33.968 145.489 27.7607C145.482 27.6601 145.482 27.5543 145.482 27.4511C145.482 26.9506 145.503 26.4527 145.553 25.9625C145.618 25.2814 145.726 24.6132 145.879 23.9605L145.864 23.9579C144.702 22.7789 144.255 21.1638 144.403 19.5411C144.592 17.4204 145.795 15.2842 147.727 14.082C149.163 13.1893 150.801 12.5933 152.558 12.3895C153.015 12.3379 153.476 12.3096 153.947 12.3096H158.308C159.233 12.098 160.153 11.9509 161.045 11.8813H161.052C169.828 11.1589 176.749 16.9328 176.104 23.9579C176.099 23.9656 176.092 23.9734 176.087 23.9811C175.901 24.283 175.736 24.5693 175.59 24.8428C175.449 25.0982 175.329 25.3433 175.227 25.5755C174.426 27.3711 178.232 55.2302 176.867 55.6533C176.09 55.8932 172.958 35.1625 173.52 39.1046C174.227 44.0503 166.034 39.0372 161.991 40.5204Z" fill="#2F2E41"/>
<path d="M162.107 38.5897C167.808 38.5897 172.43 34.0034 172.43 28.3458C172.43 22.6883 167.808 18.1019 162.107 18.1019C156.406 18.1019 151.785 22.6883 151.785 28.3458C151.785 34.0034 156.406 38.5897 162.107 38.5897Z" fill="#A0616A"/>
<path d="M171.083 24.0139C170.911 24.1041 170.742 24.1871 170.569 24.2702C170.39 24.3556 170.211 24.441 170.029 24.5216C166.575 26.0756 163.761 26.2488 162.054 24.0139C162.006 22.8443 161.743 21.6818 161.267 20.6023C161.356 21.798 161.026 23.0175 160.356 24.0139H156.919C153.378 26.3461 151.561 28.4884 154.019 36.1444C154.179 36.6474 155.276 54.5169 155.589 55.8905C150.23 53.8502 145.606 32.1871 145.489 26.4789C145.482 26.3864 145.482 26.2891 145.482 26.1942C145.482 25.734 145.503 25.2761 145.553 24.8253C145.618 24.199 145.726 23.5845 145.879 22.9843L145.864 22.9819C144.702 21.8977 144.255 20.4125 144.403 18.9202C145.298 17.7577 146.409 16.766 147.683 16.0021C148.824 15.4517 150.026 15.0056 151.274 14.664C151.305 14.6569 151.332 14.6498 151.363 14.6427C151.74 14.5406 152.128 14.4481 152.515 14.3674C153.306 14.2037 154.11 14.0804 154.932 14.0045C154.992 14.0021 155.049 13.9973 155.102 13.9973C155.439 13.9973 155.752 14.0899 156.025 14.2488C156.027 14.2488 156.027 14.2512 156.032 14.2512C156.23 14.3674 156.407 14.5217 156.546 14.7067C156.782 15.0056 156.919 15.3805 156.919 15.7886H160.749C160.89 15.7886 161.031 15.7933 161.172 15.8004C166.505 16.0116 170.792 18.2749 171.067 23.4778C171.079 23.6581 171.083 23.8336 171.083 24.0139Z" fill="#2F2E41"/>
<path d="M148.441 24.4258C152.196 24.4258 155.241 21.4043 155.241 17.677C155.241 13.9498 152.196 10.9283 148.441 10.9283C144.685 10.9283 141.64 13.9498 141.64 17.677C141.64 21.4043 144.685 24.4258 148.441 24.4258Z" fill="#2F2E41"/>
<path d="M157.777 14.5555C157.004 18.203 153.193 20.3846 149.546 19.4922C145.899 18.5998 143.672 14.9428 144.572 11.3239C145.471 7.70512 149.896 8.74839 152.802 6.38728C156.914 3.04714 158.819 9.63656 157.777 14.5555Z" fill="#2F2E41"/>
<path d="M170.29 91.8823C169.756 89.3682 167.269 87.7599 164.735 88.2901C163.575 88.5331 162.609 89.1856 161.951 90.0602L161.945 90.0597L153.357 89.3182L150.011 95.7143L163.226 96.8343L163.227 96.7888C164.218 97.4013 165.438 97.6526 166.67 97.3946C169.204 96.8644 170.824 94.3965 170.29 91.8823Z" fill="#A0616A"/>
<path d="M130.948 97.3889C128.494 97.3889 126.248 96.1634 124.932 94.1041C123.609 92.0327 123.457 89.4755 124.524 87.2637L138.55 58.2092C139.722 55.7795 142.037 54.1916 144.742 53.962C147.443 53.7311 150 54.9062 151.573 57.1029C153.383 59.6323 153.454 62.9491 151.754 65.553L137.669 87.1297L160.321 89.2107L158.336 97.2266L130.992 97.3887L130.948 97.3889Z" fill="#E6E6E6"/>
<path d="M183.688 32.122C183.688 32.1138 183.689 32.1062 183.69 32.0996C183.705 31.9901 183.824 31.9695 183.863 31.9626C184.071 31.9264 185.225 31.9536 185.384 32.2489C185.432 32.3394 185.728 32.3151 185.943 32.2974C186.095 32.2849 186.251 32.272 186.387 32.2833C189.87 32.5696 192.553 32.5187 194.144 32.1361C195.35 31.8463 196.358 31.1031 196.984 30.0434C197.609 28.987 197.775 27.7574 197.438 26.5757L196.486 23.1928C196.158 22.0243 195.386 21.0593 194.315 20.4756C193.236 19.8879 191.991 19.7603 190.81 20.1162C188.605 20.7804 185.418 22.7648 183.132 24.3126C183.039 24.3759 182.907 24.444 182.779 24.5098C182.67 24.566 182.515 24.6456 182.443 24.6983C182.458 24.7341 182.451 24.7662 182.448 24.7789C182.424 24.8779 182.326 24.8948 182.203 24.916C182.127 24.9292 181.948 24.9602 181.918 25.0097C181.914 25.017 181.918 25.0333 181.921 25.0422C181.956 25.1471 181.908 25.2019 181.878 25.225C181.786 25.2937 181.697 25.2341 181.536 25.1257C181.413 25.043 181.124 24.8493 181.034 24.9089C181.011 24.9244 180.902 25.0344 181.036 25.6904C181.074 25.8771 181.037 26.0442 180.929 26.1734C180.667 26.4859 180.068 26.4793 180.043 26.4789L178.429 26.3302C175.451 26.0548 172.554 27.1232 170.48 29.2616L170.455 29.287L168.902 29.6841L170.088 34.2496L171.684 33.8415L171.724 33.8597C174.148 34.9554 177.004 34.4527 180.454 32.3226L181.434 31.7178L181.47 31.7177C182.115 31.7166 182.912 31.7534 183.047 31.9345C183.068 31.9632 183.08 31.9962 183.08 32.0302C183.178 32.0822 183.492 32.1218 183.688 32.122Z" fill="#00A6FB"/>
<path d="M167.706 35.0193C167.753 35.2014 167.941 35.3113 168.124 35.2644L170.365 34.6914C170.548 34.6444 170.659 34.4582 170.611 34.2761L169.285 29.1695C169.238 28.9874 169.05 28.8775 168.867 28.9245L166.627 29.4975C166.443 29.5444 166.332 29.7306 166.38 29.9127L167.706 35.0193Z" fill="#3F3D56"/>
<path d="M167.58 33.8598C168.286 33.8598 168.858 33.2917 168.858 32.591C168.858 31.8902 168.286 31.3221 167.58 31.3221C166.874 31.3221 166.301 31.8902 166.301 32.591C166.301 33.2917 166.874 33.8598 167.58 33.8598Z" fill="#3F3D56"/>
<path d="M94.9077 261.036L89.0516 261.036L86.2657 238.619L94.9089 238.62L94.9077 261.036Z" fill="#FFB6B6"/>
<path d="M95.1138 267.099L77.1053 267.098V266.872C77.1055 263.031 80.2437 259.917 84.1147 259.916H84.1151L87.4046 257.44L93.5421 259.917L95.1141 259.917L95.1138 267.099Z" fill="#2F2E41"/>
<path d="M71.4675 261.036L65.6113 261.036L62.8255 238.619L71.4686 238.62L71.4675 261.036Z" fill="#FFB6B6"/>
<path d="M71.6736 267.099L53.665 267.098V266.872C53.6653 263.031 56.8034 259.917 60.6745 259.916H60.6749L63.9644 257.44L70.1018 259.917L71.6739 259.917L71.6736 267.099Z" fill="#2F2E41"/>
<path d="M70.8951 17.6079C72.6932 19.5659 72.5515 22.5999 70.5785 24.3844C69.6744 25.2021 68.5428 25.6106 67.4089 25.6303L67.4055 25.6359L57.1058 43.1409L49.8165 39.6185L62.4646 20.4913L62.5035 20.5182C62.5839 19.3262 63.1067 18.162 64.0666 17.2937C66.0396 15.5092 69.0968 15.6499 70.8951 17.6079Z" fill="#FFB6B6"/>
<path d="M65.2033 112.926C65.2033 112.926 56.1213 177.827 61.3944 190.473L62.125 246.727H72.0655L80.7024 193.526C80.7024 193.526 79.8236 192.217 81.5813 190.473C83.3389 188.729 83.3389 190.473 83.3389 188.729C83.3389 186.984 78.5053 180.879 78.5053 180.879L82.7777 156.023L86.2931 246.727L95.5209 246.291C95.5209 246.291 104.309 217.074 102.991 203.555C102.991 203.555 102.112 194.398 102.112 193.089C102.112 191.781 100.794 189.601 102.112 188.293C103.43 186.984 103.803 183.695 103.177 183.159C102.552 182.624 102.552 180.193 102.552 180.193L112.219 145.121V118.263L65.2033 112.926Z" fill="#2F2E41"/>
<path d="M96.3997 32.1779L83.2171 33.4861L76.8369 41.8758L69.1557 47.4649V93.7469L70.7437 104.467C67.2906 106.93 62.3776 111.019 64.3509 115.464C64.3509 115.464 101.884 127.531 112.43 117.065L111.551 90.6119L114.213 54.2415C114.741 47.0323 110.114 40.4398 103.117 38.432L97.5554 36.8362L96.3997 32.1779Z" fill="#E6E6E6"/>
<path d="M109.866 141.443C112.494 140.978 114.245 138.487 113.777 135.879C113.562 134.684 112.916 133.675 112.029 132.974L112.029 132.967L113.789 108.697L106.118 104.93L104.953 134.058L105 134.06C104.332 135.054 104.031 136.293 104.259 137.562C104.728 140.17 107.238 141.908 109.866 141.443Z" fill="#FFB6B6"/>
<path d="M114.215 117.579L105.691 118.001L102.462 100.845L95.2099 53.3966C94.7914 50.6584 95.5683 47.8614 97.3411 45.7225C99.1139 43.5838 101.73 42.2879 104.518 42.1673C109.785 41.935 114.283 45.8441 114.755 51.0559L118.278 89.9345L114.215 117.579Z" fill="#E6E6E6"/>
<path d="M69.5951 47.0045L70.4739 65.3196L50.3156 65.7961C42.9625 65.9698 38.3496 57.9772 42.2211 51.7711L52.9202 33.0588L59.8748 39.1724L54.6548 51.8013L69.5951 47.0045Z" fill="#E6E6E6"/>
<path d="M87.1929 28.96C93.9911 28.96 99.5021 23.491 99.5021 16.7446C99.5021 9.99816 93.9911 4.52911 87.1929 4.52911C80.3947 4.52911 74.8837 9.99816 74.8837 16.7446C74.8837 23.491 80.3947 28.96 87.1929 28.96Z" fill="#FFB6B6"/>
<path d="M99.4474 25.0897C98.1049 26.7561 96.9585 27.7331 95.1088 28.4309C95.079 28.1772 95.0619 27.9192 95.0662 27.6612C94.8105 28.008 94.559 28.3548 94.2991 28.7016C93.1484 29.0527 91.742 29.3276 89.9221 29.6067L89.0272 26.8957C88.8865 25.6691 89.7048 24.5399 90.6168 23.6982C91.5289 22.8608 92.5943 22.1418 93.2208 21.076C93.8473 20.0102 93.8388 18.4199 92.7946 17.7517C91.7675 17.0876 90.3569 17.6333 89.1976 17.2399C87.8594 16.7874 87.2329 15.1633 87.4545 13.776C87.6761 12.3888 88.5242 11.1918 89.3468 10.0541C87.429 10.8831 84.5266 10.9888 81.701 10.494C81.8033 9.61851 81.5902 8.70073 81.0575 7.9944C81.0063 8.80223 80.627 9.58043 80.0303 10.126C77.3155 9.40281 74.8863 8.11707 73.7782 6.38299C74.2683 6.25612 74.7584 6.125 75.2485 5.99813C75.1079 4.99999 74.9673 4.00607 74.8266 3.01216C75.4233 3.30399 76.0242 3.60006 76.6251 3.89189C76.7402 3.55352 76.9149 3.25748 77.1365 2.99523C77.6437 2.83454 78.1679 2.73724 78.7006 2.69919C78.8711 2.69072 79.0459 2.68226 79.2206 2.68226C79.4763 2.68226 79.7405 2.69072 79.9963 2.72033C79.6766 2.43274 79.3527 2.14935 79.0331 1.85754C78.9947 1.8237 78.9606 1.78986 78.9223 1.75602C79.5061 1.50649 80.1369 1.31616 80.7336 1.15121C83.3418 0.432208 86.0438 -0.291005 88.7203 0.119236C90.43 0.381726 92.1309 1.23978 93.2405 2.51949C94.231 3.66191 95.6295 4.33888 97.118 4.63787C97.8332 4.78154 98.526 5.09911 99.1022 5.54135C98.7399 5.77396 98.3563 5.97699 97.9557 6.13771C98.7144 6.31957 99.4687 6.50144 100.227 6.68753C100.935 7.61377 101.416 8.71764 101.783 9.82575C103.479 14.9307 102.831 20.8941 99.4474 25.0897Z" fill="#2F2E41"/>
<path d="M56.6559 22.1206C56.6566 22.129 56.6567 22.1369 56.6561 22.1437C56.6483 22.2575 56.5276 22.2877 56.4879 22.2977C56.2773 22.3505 55.0888 22.4095 54.9028 22.1178C54.8461 22.0284 54.544 22.0757 54.3238 22.1101C54.1691 22.1343 54.0091 22.1593 53.8683 22.158C50.2649 22.1258 47.5106 22.3802 45.9032 22.8935C44.6861 23.2822 43.7059 24.1223 43.1429 25.2591C42.5817 26.3924 42.5045 27.6693 42.9418 28.859L44.179 32.2658C44.6064 33.4426 45.473 34.3768 46.6197 34.8963C47.7739 35.4193 49.0636 35.4567 50.2511 35.0019C52.4675 34.1529 55.593 31.8724 57.8246 30.1089C57.9159 30.0367 58.0465 29.9568 58.1729 29.8794C58.2809 29.8134 58.4338 29.7199 58.5041 29.6603C58.4854 29.6247 58.4904 29.5911 58.4925 29.5778C58.5101 29.4742 58.6091 29.4495 58.734 29.4184C58.8114 29.399 58.9929 29.3537 59.02 29.3006C59.024 29.2928 59.0186 29.2763 59.0145 29.2674C58.9702 29.1622 59.0151 29.1022 59.0451 29.0762C59.1345 28.9986 59.2305 29.0532 59.4044 29.1526C59.5372 29.2283 59.8483 29.4057 59.9365 29.3377C59.9591 29.32 60.0632 29.1986 59.8749 28.5343C59.8211 28.3451 59.8465 28.1705 59.948 28.0295C60.1933 27.6885 60.8099 27.6501 60.8359 27.6486L62.5063 27.6801C65.5895 27.7391 68.4872 26.4223 70.4562 24.0673L70.4797 24.0394L72.046 23.514L70.4777 18.9088L68.8682 19.4486L68.8254 19.4329C66.2489 18.4888 63.3511 19.2208 59.9658 21.6709L59.0047 22.3665L58.9681 22.3693C58.3047 22.419 57.4821 22.4412 57.3299 22.2651C57.3058 22.2372 57.291 22.2041 57.288 22.1693C57.1832 22.1232 56.8582 22.106 56.6559 22.1206Z" fill="#00A6FB"/>
<path d="M72.8684 17.938C72.8058 17.7543 72.6045 17.6554 72.4194 17.7175L70.1597 18.4754C69.9746 18.5375 69.875 18.7373 69.9375 18.921L71.6917 24.072C71.7542 24.2557 71.9556 24.3545 72.1407 24.2925L74.4004 23.5346C74.5855 23.4725 74.6851 23.2727 74.6226 23.089L72.8684 17.938Z" fill="#3F3D56"/>
<path d="M73.1837 21.7337C73.9117 21.7337 74.5019 21.148 74.5019 20.4255C74.5019 19.703 73.9117 19.1173 73.1837 19.1173C72.4556 19.1173 71.8654 19.703 71.8654 20.4255C71.8654 21.148 72.4556 21.7337 73.1837 21.7337Z" fill="#3F3D56"/>
</g>
<defs>
<clipPath id="clip0_2_97">
<rect width="230" height="268" fill="white"/>
</clipPath>
</defs>
</svg>
