<svg width="211" height="170" viewBox="0 0 211 170" fill="none" xmlns="http://www.w3.org/2000/svg">
<path d="M93.9549 57.4814C93.8183 57.6218 93.693 57.7727 93.5801 57.9327L76.0228 57.5036L73.9746 53.7646L67.922 56.1151L70.9041 63.0862C71.145 63.6494 71.5623 64.1193 72.0933 64.4254C72.6243 64.7315 73.2404 64.8573 73.849 64.7838L93.6855 62.39C94.1534 62.9817 94.7906 63.4172 95.5122 63.6383C96.2339 63.8595 97.0059 63.856 97.7255 63.6282C98.4451 63.4003 99.0782 62.9591 99.5407 62.363C100.003 61.767 100.273 61.0444 100.314 60.2914C100.356 59.5384 100.166 58.7907 99.772 58.1478C99.3776 57.5048 98.7966 56.997 98.1062 56.6919C97.4159 56.3869 96.6489 56.2991 95.9073 56.4401C95.1658 56.5811 94.4847 56.9443 93.9549 57.4814Z" fill="#FFB7B7"/>
<path d="M36.721 164H42.4939L45.2402 141.755L36.72 141.756L36.721 164Z" fill="#FFB7B7"/>
<path d="M35.2483 162.117L46.6173 162.117H46.6178C48.5393 162.117 50.3821 162.879 51.7408 164.237C53.0995 165.594 53.8629 167.435 53.863 169.354V169.59L35.2487 169.59L35.2483 162.117Z" fill="#2F2E41"/>
<path d="M89.1414 163.872L94.4502 161.606L88.2284 140.072L80.3935 143.416L89.1414 163.872Z" fill="#FFB7B7"/>
<path d="M87.0466 162.718L97.5015 158.256L97.5019 158.256C99.269 157.502 101.263 157.48 103.047 158.195C104.83 158.91 106.256 160.303 107.011 162.069L107.103 162.285L89.9855 169.59L87.0466 162.718Z" fill="#2F2E41"/>
<path d="M64.7814 62.3002L65.1988 69.0581L52.9965 70.3627L40.2282 71.7276L43.9862 61.466L64.7814 62.3002Z" fill="#FFB7B7"/>
<path d="M65.21 64.725C65.0716 64.6707 51.289 59.3149 42.8232 63.6942L42.615 63.802L40.9261 55.4975L39.9638 37.6433L46.2258 34.6874L47.95 30.8292L59.6937 30.135L62.107 33.4412L70.3235 36.1313L65.4128 64.8051L65.21 64.725Z" fill="#E4E4E4"/>
<path d="M65.6416 48.6092L67.0942 37.2073L70.4017 36.2016L70.4575 36.2222C70.5338 36.2502 72.3313 36.9375 72.8234 39.4236C73.2957 41.8098 76.8527 56.6592 76.8886 56.809L76.9242 56.9576L68.5667 60.298L65.6416 48.6092Z" fill="#E4E4E4"/>
<path d="M84.8415 159.962L95.9667 157.683L78.1855 108.668L72.0999 91.9492C72.0999 91.9492 68.2401 78.5446 66.4962 73.3571L65.4438 66.3968L40.5311 69.1515C40.5311 69.1515 33.573 79.3598 35.6868 95.9985L34.7308 158.537L45.8559 159.107L55.1744 96.0338L71.5294 130.61C71.5294 130.61 76.6843 145.365 80.3725 148.563L84.8415 159.962Z" fill="#2F2E41"/>
<path d="M50.5217 71.4728C50.3257 71.4682 50.1298 71.479 49.9356 71.5051L38.3133 58.3517L39.6652 54.3091L33.8247 51.4734L30.7351 58.3977C30.4855 58.9571 30.4243 59.5822 30.5606 60.1793C30.697 60.7764 31.0235 61.3133 31.4913 61.7092L46.7354 74.6128C46.6192 75.3579 46.7328 76.1207 47.0611 76.7998C47.3894 77.4788 47.9169 78.0419 48.5734 78.4142C49.2299 78.7864 49.9843 78.9502 50.7362 78.8837C51.4881 78.8172 52.202 78.5236 52.7828 78.0419C53.3636 77.5602 53.7839 76.9133 53.9877 76.1872C54.1915 75.4611 54.1692 74.6902 53.9237 73.9771C53.6782 73.264 53.2213 72.6424 52.6135 72.195C52.0058 71.7477 51.2762 71.4958 50.5217 71.4728Z" fill="#FFB7B7"/>
<path d="M32.7725 53.4221L37.3161 40.4932C37.8267 38.9691 38.4666 38.0432 39.218 37.7411C39.366 37.6746 39.5262 37.6394 39.6885 37.6379C39.8508 37.6364 40.0117 37.6685 40.1609 37.7323L42.1983 40.3037L44.0892 48.2392L39.241 59.6317L32.7725 53.4221Z" fill="#E4E4E4"/>
<path d="M62.847 27.4595H42.9005C42.4902 27.4591 42.0968 27.296 41.8067 27.0062C41.5166 26.7164 41.3534 26.3234 41.3529 25.9135V17.3246C41.3529 14.2722 42.5667 11.3448 44.7273 9.18641C46.8879 7.02803 49.8182 5.81546 52.8737 5.81546C55.9293 5.81546 58.8596 7.02803 61.0202 9.18641C63.1808 11.3448 64.3946 14.2722 64.3946 17.3246V25.9135C64.3941 26.3234 64.2309 26.7164 63.9408 27.0062C63.6507 27.296 63.2573 27.4591 62.847 27.4595Z" fill="#2F2E41"/>
<path d="M55.2411 27.2596C59.9061 27.2596 63.6878 23.4817 63.6878 18.8215C63.6878 14.1612 59.9061 10.3834 55.2411 10.3834C50.5762 10.3834 46.7945 14.1612 46.7945 18.8215C46.7945 23.4817 50.5762 27.2596 55.2411 27.2596Z" fill="#FFB7B7"/>
<path d="M67.1201 18.1835H54.9233L54.7982 16.4342L54.1729 18.1835H52.2948L52.047 14.7164L50.8075 18.1835H47.1736V18.0117C47.1763 15.598 48.1373 13.2839 49.8458 11.5771C51.5543 9.87028 53.8708 8.9102 56.287 8.90747H58.0066C60.4228 8.9102 62.7393 9.87027 64.4478 11.5771C66.1563 13.2838 67.1174 15.598 67.1201 18.0117L67.1201 18.1835Z" fill="#2F2E41"/>
<path d="M54.8235 29.0628C54.7317 29.0627 54.64 29.0546 54.5496 29.0386L45.6186 27.4645V12.719H55.4499L55.2065 13.0025C51.82 16.9481 54.3714 23.3458 56.1936 26.8082C56.3279 27.0618 56.3878 27.3481 56.3664 27.6342C56.3449 27.9203 56.243 28.1945 56.0724 28.4253C55.9296 28.6227 55.7419 28.7834 55.5248 28.8942C55.3077 29.005 55.0673 29.0628 54.8235 29.0628Z" fill="#2F2E41"/>
<path d="M113.537 87.5765C113.954 87.296 114.304 86.9277 114.563 86.4974C114.822 86.0672 114.983 85.5854 115.035 85.0862C115.088 84.5869 115.03 84.0822 114.866 83.6077C114.702 83.1332 114.436 82.7003 114.086 82.3397L119.591 71.4464L113.286 72.1771L109.025 82.4095C108.457 83.0363 108.139 83.8493 108.132 84.6945C108.124 85.5396 108.427 86.3582 108.983 86.9951C109.54 87.632 110.31 88.0429 111.15 88.1501C111.989 88.2572 112.838 88.0531 113.537 87.5765Z" fill="#FFB7B7"/>
<path d="M157.686 164.739L152.725 164.738L150.365 145.622L157.687 145.622L157.686 164.739Z" fill="#FFB7B7"/>
<path d="M158.951 169.543L142.954 169.542V169.34C142.954 167.691 143.61 166.109 144.778 164.942C145.946 163.776 147.53 163.12 149.181 163.12H149.181L158.952 163.121L158.951 169.543Z" fill="#2F2E41"/>
<path d="M130.573 164.739L125.612 164.738L123.251 145.622L130.574 145.622L130.573 164.739Z" fill="#FFB7B7"/>
<path d="M130.624 169.543L114.627 169.542V169.34C114.627 167.691 115.283 166.109 116.451 164.942C117.619 163.776 119.202 163.12 120.854 163.12H120.854L130.624 163.121L130.624 169.543Z" fill="#2F2E41"/>
<path d="M130.166 83.9986L125.31 95.1745L121.305 159.412L131.421 159.008L134.184 128.386L142.708 101.112L147.608 131.518L149.632 158.199L158.003 158.561L161.339 83.9986H130.166Z" fill="#2F2E41"/>
<path d="M154.441 28.8508L140.366 29.2025L132.103 33.4402L131.649 64.7049L126.496 86.2905C126.496 86.2905 158.696 88.5044 163.147 85.2703L157.887 60.6103L164.942 33.9599L154.441 28.8508Z" fill="#00A6FB"/>
<path d="M134.276 33.9584L132.966 33.0745C132.966 33.0745 127.538 34.6997 125.933 41.9303C125.933 41.9303 124.706 45.558 124.167 48.0521C123.549 50.9128 109.906 77.1899 109.906 77.1899L118.074 79.5309L133.05 55.3364L134.276 33.9584Z" fill="#00A6FB"/>
<path d="M164.722 91.5855C164.399 91.2011 164.164 90.7506 164.034 90.2657C163.904 89.7808 163.882 89.2733 163.969 88.779C164.057 88.2847 164.251 87.8155 164.54 87.4046C164.829 86.9936 165.204 86.6509 165.64 86.4005L163.355 74.4131L169.214 76.8524L170.485 87.8619C170.858 88.6207 170.939 89.4898 170.713 90.3043C170.487 91.1188 169.97 91.8222 169.259 92.2812C168.549 92.7402 167.695 92.9229 166.858 92.7947C166.022 92.6664 165.262 92.2362 164.722 91.5855Z" fill="#FFB7B7"/>
<path d="M162.825 34.3332L164.328 33.8444C164.328 33.8444 169.097 36.902 168.643 44.2942C168.643 44.2942 168.822 48.1194 168.651 50.6652C168.456 53.5853 171.08 82.602 171.08 82.602H162.581L158.939 56.3249L162.825 34.3332Z" fill="#00A6FB"/>
<path d="M157.895 15.7339C157.895 17.6617 157.323 19.5461 156.251 21.1489C155.179 22.7518 153.655 24.0011 151.873 24.7388C150.09 25.4765 148.128 25.6695 146.235 25.2934C144.343 24.9173 142.604 23.989 141.24 22.6259C139.875 21.2628 138.946 19.5261 138.57 17.6354C138.193 15.7447 138.386 13.785 139.125 12.004C139.863 10.223 141.114 8.70077 142.718 7.62978C144.323 6.55879 146.209 5.98715 148.139 5.98715C150.72 5.98072 153.198 6.99887 155.028 8.81764C156.857 10.6364 157.889 13.1068 157.895 15.6854C157.896 15.7016 157.896 15.7177 157.895 15.7339Z" fill="#FFB7B7"/>
<path d="M138.415 2.64223C139.557 0.187013 141.769 0.672428 143.704 1.50468C146.153 0.961881 148.483 -0.663216 151.122 0.29786C153.722 4.07534 162.451 2.96394 160.594 9.11369C160.592 10.5873 163.37 9.72957 162.885 12.143C164.356 16.7876 157.573 25.5839 153.678 23.7315C154.641 21.9682 156.841 17.9629 153.504 17.5656C146.326 24.2382 152.764 4.85949 143.744 10.4951C140.758 13.2255 136.669 5.37325 138.415 2.64223Z" fill="#2F2E41"/>
<path d="M117.3 65.1249C116.745 65.1807 116.186 65.1938 115.629 65.1638C115.534 65.1534 115.438 65.1807 115.363 65.2398C115.288 65.2989 115.24 65.3851 115.228 65.4798L114.161 73.4681C114.079 74.048 113.842 74.5948 113.474 75.0506C113.17 75.4134 112.945 75.8345 112.811 76.288C112.677 76.7415 112.638 77.2175 112.697 77.6867V91.2562C112.697 91.2562 112.628 93.0654 114.019 93.0654C115.685 93.2745 117.37 93.2745 119.035 93.0654C119.035 93.0654 120.15 92.8547 120.15 91.1852V77.8241C120.235 77.3579 120.217 76.8789 120.098 76.4201C119.98 75.9614 119.762 75.534 119.462 75.1674C119.106 74.71 118.876 74.1676 118.795 73.5941L117.687 65.4386C117.675 65.3469 117.628 65.2634 117.556 65.2052C117.484 65.1469 117.392 65.1182 117.3 65.1249Z" fill="white"/>
<path d="M116.522 93.4508C115.681 93.4509 114.84 93.3986 114.005 93.2944C113.818 93.2988 113.632 93.2646 113.46 93.194C113.287 93.1233 113.131 93.0177 113.001 92.8839C112.434 92.2963 112.466 91.29 112.467 91.2474L112.467 77.7006C112.408 77.2025 112.451 76.6976 112.594 76.2168C112.737 75.7359 112.976 75.2892 113.298 74.9038C113.639 74.4808 113.859 73.9737 113.934 73.4361L115 65.4495C115.021 65.2959 115.101 65.1564 115.223 65.0606C115.345 64.9648 115.499 64.9201 115.654 64.9362C116.195 64.9647 116.738 64.9516 117.277 64.897L117.283 64.8965C117.434 64.8855 117.583 64.9323 117.7 65.0272C117.817 65.1222 117.894 65.2581 117.915 65.4075L119.022 73.5634C119.098 74.0968 119.312 74.6012 119.643 75.0268C119.961 75.4158 120.192 75.8689 120.319 76.3552C120.446 76.8415 120.467 77.3495 120.379 77.8444V91.1851C120.379 93.0231 119.091 93.288 119.078 93.2905C118.23 93.3972 117.377 93.4508 116.522 93.4508ZM115.598 65.3915C115.563 65.3899 115.53 65.401 115.504 65.4226C115.477 65.4443 115.46 65.475 115.455 65.5087L114.389 73.4984C114.301 74.1198 114.046 74.7059 113.652 75.1945C113.369 75.5337 113.158 75.9273 113.033 76.3511C112.907 76.7749 112.87 77.2198 112.924 77.6584L112.926 77.6866V91.2561C112.925 91.273 112.901 92.1216 113.332 92.5673C113.421 92.6579 113.528 92.7288 113.647 92.7752C113.765 92.8216 113.892 92.8424 114.019 92.8365L114.048 92.8382C115.694 93.0447 117.36 93.0447 119.007 92.8382C119.029 92.8329 119.92 92.6297 119.92 91.1851L119.924 77.783C120.003 77.3495 119.987 76.904 119.877 76.4774C119.766 76.0507 119.564 75.6532 119.284 75.3125C118.903 74.8224 118.655 74.2411 118.568 73.6262L117.46 65.4693C117.455 65.4359 117.438 65.4054 117.412 65.384C117.386 65.3625 117.353 65.3515 117.319 65.3532C116.753 65.4097 116.184 65.4228 115.616 65.3925C115.61 65.3919 115.604 65.3915 115.598 65.3915Z" fill="#3F3D56"/>
<path d="M115.617 77.9294H117.307C117.639 77.9294 117.969 77.9949 118.276 78.1221C118.584 78.2492 118.863 78.4357 119.098 78.6706C119.333 78.9056 119.52 79.1846 119.647 79.4917C119.775 79.7987 119.84 80.1278 119.84 80.4601V86.8108C119.84 87.482 119.573 88.1257 119.098 88.6003C118.623 89.0749 117.979 89.3415 117.307 89.3415H115.617C115.285 89.3415 114.955 89.2761 114.648 89.1489C114.34 89.0217 114.061 88.8353 113.826 88.6003C113.591 88.3653 113.404 88.0863 113.277 87.7793C113.149 87.4723 113.084 87.1432 113.084 86.8108V80.4601C113.084 79.7889 113.351 79.1452 113.826 78.6706C114.301 78.196 114.945 77.9294 115.617 77.9294Z" fill="#00A6FB"/>
<path d="M94.5782 41.7949C94.0215 41.8509 93.4613 41.864 92.9025 41.8339C92.8073 41.8235 92.7118 41.8509 92.6365 41.9102C92.5613 41.9694 92.5124 42.0559 92.5003 42.1508L91.4315 50.1599C91.3493 50.7413 91.111 51.2896 90.7419 51.7466C90.4377 52.1102 90.2115 52.5325 90.0775 52.9871C89.9435 53.4418 89.9044 53.9191 89.9627 54.3895V67.9943C89.9627 67.9943 89.8938 69.8083 91.289 69.8083C92.9588 70.0179 94.6483 70.0179 96.3181 69.8083C96.3181 69.8083 97.4352 69.5971 97.4352 67.9231V54.5272C97.5204 54.0598 97.5029 53.5796 97.3838 53.1196C97.2648 52.6597 97.047 52.2311 96.7457 51.8636C96.389 51.405 96.1584 50.8612 96.0768 50.2862L94.9666 42.1095C94.954 42.0175 94.9068 41.9338 94.8347 41.8754C94.7625 41.817 94.6708 41.7882 94.5782 41.7949Z" fill="white"/>
<path d="M93.7987 70.1947C92.9547 70.1948 92.1116 70.1424 91.2742 70.0379C91.0871 70.0423 90.9011 70.008 90.7279 69.9372C90.5547 69.8663 90.398 69.7605 90.2676 69.6263C89.6999 69.0372 89.7315 68.0283 89.7331 67.9855L89.7329 54.4034C89.6737 53.904 89.717 53.3978 89.8601 52.9157C90.0033 52.4336 90.2433 51.9857 90.5656 51.5993C90.9072 51.1753 91.1278 50.6668 91.2039 50.1278L92.2725 42.1204C92.2933 41.9664 92.3733 41.8265 92.4956 41.7305C92.6179 41.6344 92.7728 41.5896 92.9275 41.6057C93.4703 41.6343 94.0144 41.6212 94.5552 41.5665L94.5616 41.5659C94.7125 41.555 94.8619 41.6018 94.9795 41.697C95.097 41.7922 95.1738 41.9285 95.1944 42.0783L96.3046 50.2554C96.3809 50.7902 96.5955 51.296 96.9272 51.7227C97.2466 52.1126 97.4779 52.567 97.6053 53.0545C97.7327 53.5421 97.7531 54.0514 97.6651 54.5476V67.9231C97.6651 69.7659 96.374 70.0315 96.3609 70.0339C95.511 70.1409 94.6553 70.1946 93.7987 70.1947ZM92.8713 42.0622C92.8371 42.0606 92.8036 42.0717 92.7771 42.0934C92.7507 42.1152 92.7333 42.1459 92.7283 42.1797L91.6593 50.1903C91.5714 50.8133 91.3162 51.401 90.9208 51.8908C90.6367 52.2309 90.4253 52.6255 90.2997 53.0504C90.1742 53.4753 90.1371 53.9214 90.1909 54.3612L90.1926 54.3894V67.9943C90.1922 68.0112 90.1678 68.862 90.5999 69.3089C90.6893 69.3998 90.7969 69.4708 90.9156 69.5173C91.0344 69.5638 91.1616 69.5847 91.289 69.5787L91.3177 69.5805C92.9685 69.7875 94.6387 69.7875 96.2895 69.5805C96.3113 69.5752 97.2054 69.3714 97.2054 67.9231L97.2091 54.4861C97.2887 54.0515 97.2726 53.6047 97.1618 53.177C97.0511 52.7492 96.8484 52.3507 96.5679 52.0091C96.185 51.5178 95.9373 50.9349 95.8493 50.3184L94.7389 42.1403C94.734 42.1067 94.7168 42.0762 94.6906 42.0547C94.6644 42.0331 94.6311 42.0221 94.5972 42.0238C94.0301 42.0805 93.4594 42.0937 92.8903 42.0633C92.884 42.0626 92.8776 42.0623 92.8713 42.0622Z" fill="#3F3D56"/>
<path d="M92.8911 54.6328H94.5851C94.9186 54.6328 95.2489 54.6985 95.557 54.826C95.8652 54.9535 96.1452 55.1404 96.381 55.376C96.6169 55.6116 96.8039 55.8913 96.9316 56.1991C97.0592 56.507 97.1249 56.8369 97.1249 57.1701V63.5374C97.1249 63.8706 97.0592 64.2006 96.9316 64.5084C96.8039 64.8163 96.6169 65.096 96.381 65.3316C96.1452 65.5672 95.8652 65.7541 95.557 65.8816C95.2489 66.0091 94.9186 66.0747 94.5851 66.0747H92.891C92.5575 66.0747 92.2272 66.0091 91.9191 65.8816C91.6109 65.7541 91.3309 65.5672 91.0951 65.3316C90.8592 65.096 90.6722 64.8163 90.5445 64.5084C90.4169 64.2006 90.3512 63.8706 90.3512 63.5374V57.1701C90.3512 56.4972 90.6188 55.8518 91.0951 55.376C91.5714 54.9002 92.2174 54.6328 92.8911 54.6328Z" fill="#00A6FB"/>
<path d="M100.641 27.785C103.87 27.785 106.487 25.1704 106.487 21.945C106.487 18.7196 103.87 16.1049 100.641 16.1049C97.4128 16.1049 94.7955 18.7196 94.7955 21.945C94.7955 25.1704 97.4128 27.785 100.641 27.785Z" fill="#00A6FB"/>
<path d="M87.3256 98.8391C90.5542 98.8391 93.1716 96.2244 93.1716 92.9991C93.1716 89.7737 90.5542 87.159 87.3256 87.159C84.0969 87.159 81.4796 89.7737 81.4796 92.9991C81.4796 96.2244 84.0969 98.8391 87.3256 98.8391Z" fill="#00A6FB"/>
<path d="M112.658 124.47C115.887 124.47 118.504 121.856 118.504 118.63C118.504 115.405 115.887 112.79 112.658 112.79C109.43 112.79 106.812 115.405 106.812 118.63C106.812 121.856 109.43 124.47 112.658 124.47Z" fill="#00A6FB"/>
</svg>
