<svg id="SvgjsSvg1001" width="288" height="288" xmlns="http://www.w3.org/2000/svg" version="1.1" xmlns:xlink="http://www.w3.org/1999/xlink" xmlns:svgjs="http://svgjs.com/svgjs"><defs id="SvgjsDefs1002"></defs><g id="SvgjsG1008"><svg xmlns="http://www.w3.org/2000/svg" viewBox="0 0 24 24" width="288" height="288"><path fill="#4accff" d="M15.21 22H8.79a2.998 2.998 0 0 1-2.981-2.669L4.006 3.111A1 1 0 0 1 5 2h14a1 1 0 0 1 .994 1.11L18.19 19.331A2.998 2.998 0 0 1 15.21 22Z" class="colorb2b1ff svgShape"></path><path fill="#00a6fb" d="M18.191 19.331 19.451 8H4.55l1.259 11.331A2.998 2.998 0 0 0 8.79 22h6.42a2.998 2.998 0 0 0 2.981-2.669Z" class="color6563ff svgShape"></path></svg></g></svg>