<svg width="11" height="24" viewBox="0 0 11 24" fill="none" xmlns="http://www.w3.org/2000/svg">
<path d="M5.49999 0C7.11987 0 8.43306 1.34316 8.43306 3C8.43306 4.65684 7.11987 6 5.49999 6C3.8801 6 2.56691 4.65684 2.56691 3C2.56691 1.34316 3.8801 0 5.49999 0ZM10.9666 16.6021L8.76684 7.60214C8.70735 7.35874 8.57002 7.14267 8.37668 6.98827C8.18334 6.83387 7.94509 6.75 7.69979 6.75H7.17917C6.13834 7.23952 4.9065 7.26066 3.8208 6.75H3.30018C3.05489 6.75 2.81663 6.83387 2.6233 6.98827C2.42996 7.14267 2.29263 7.35874 2.23313 7.60214L0.0333236 16.6021C-0.140003 17.3112 0.384651 18 1.10037 18H3.66681V22.875C3.66681 23.4963 4.15925 24 4.76672 24H6.23326C6.84072 24 7.33316 23.4963 7.33316 22.875V18H9.8996C10.6141 18 11.1403 17.3123 10.9666 16.6021Z" fill="white"/>
</svg>
