<svg width="121" height="200" viewBox="0 0 121 200" fill="none" xmlns="http://www.w3.org/2000/svg">
<path d="M120.859 144.714C120.859 158.206 109.923 169.143 96.4312 169.143C82.9398 169.143 72.0029 158.206 72.0029 144.714C72.0029 131.223 82.9398 120.286 96.4312 120.286C109.923 120.286 120.859 131.223 120.859 144.714ZM84.2171 144.714C84.2171 151.46 89.6855 156.929 96.4312 156.929C103.177 156.929 108.645 151.46 108.645 144.714C108.645 137.969 103.177 132.5 96.4312 132.5C89.6855 132.5 84.2171 137.969 84.2171 144.714Z" fill="#F79141"/>
<path d="M88.7131 183.286L92.5702 110H0L3.85709 183.286C4.37796 188.004 6.75112 191.92 10.2873 195.086C13.8235 198.252 20.905 200.002 25.6514 200H66.9223C71.6687 200.002 78.7502 198.252 82.2863 195.086C85.8225 191.92 88.1922 188.004 88.7131 183.286Z" fill="url(#paint0_linear_813_1151)"/>
<defs>
<linearGradient id="paint0_linear_813_1151" x1="46.2883" y1="110" x2="46.2883" y2="200" gradientUnits="userSpaceOnUse">
<stop stop-color="#FFC450"/>
<stop offset="1" stop-color="#F79040"/>
</linearGradient>
</defs>
</svg>
