<svg width="100" height="200" viewBox="0 0 100 200" fill="none" xmlns="http://www.w3.org/2000/svg">
<path d="M70.0625 199.998H29.9382C25.3236 200 20.8707 198.299 17.4327 195.22C13.9948 192.142 11.8136 187.904 11.3072 183.317L0.0386224 81.9436C-0.0589885 81.0697 0.0289262 80.185 0.29662 79.3474C0.564314 78.5097 1.00576 77.738 1.59211 77.0826C2.17845 76.4273 2.8965 75.903 3.69932 75.5441C4.50214 75.1853 5.37165 74.9998 6.25103 75H93.7497C94.6285 74.9999 95.4974 75.1852 96.2997 75.5437C97.1021 75.9022 97.8198 76.4259 98.406 77.0805C98.9923 77.7352 99.4339 78.5061 99.702 79.343C99.9701 80.1799 100.059 81.0639 99.9621 81.9374L88.6873 183.317C88.181 187.903 86.0007 192.14 82.5641 195.218C79.1274 198.296 74.676 199.998 70.0625 199.998Z" fill="url(#paint0_linear_813_1145)"/>
<path d="M88.6924 183.317L96.5673 112.499H3.4375L11.3061 183.317C11.8125 187.904 13.9937 192.142 17.4316 195.22C20.8696 198.299 25.3225 200 29.9371 199.998H70.0615C74.676 200 79.129 198.299 82.5669 195.22C86.0049 192.142 88.186 187.904 88.6924 183.317Z" fill="url(#paint1_linear_813_1145)"/>
<defs>
<linearGradient id="paint0_linear_813_1145" x1="50" y1="75" x2="50" y2="199.998" gradientUnits="userSpaceOnUse">
<stop stop-color="#EBF2F9"/>
<stop offset="1" stop-color="#AFAFAF"/>
</linearGradient>
<linearGradient id="paint1_linear_813_1145" x1="50.0024" y1="112.499" x2="50.0024" y2="199.998" gradientUnits="userSpaceOnUse">
<stop stop-color="#57C6FF"/>
<stop offset="1" stop-color="#00A6FB"/>
</linearGradient>
</defs>
</svg>
