<svg width="100" height="200" viewBox="0 0 100 200" fill="none" xmlns="http://www.w3.org/2000/svg">
<g clip-path="url(#clip0_813_1146)">
<path d="M96.3333 179.858V46.6667C96.3333 35.621 87.379 26.6667 76.3333 26.6667H23C11.9543 26.6667 3 35.621 3 46.6667V179.858C3.61076 185.537 6.38047 190.274 10.5269 194.085C14.6733 197.896 19.9047 200.002 25.4703 200H73.8631C79.4286 200.002 84.7991 197.896 88.9455 194.085C93.0919 190.274 95.7226 185.537 96.3333 179.858Z" fill="url(#paint0_linear_813_1146)"/>
<path d="M96.3333 182.179V45.8228C96.3333 42.781 95.6395 39.7793 94.3047 37.0461L93.5333 35.4667H5.8L5.02865 37.0461C3.69381 39.7793 3 42.781 3 45.8228V182.179C3.61076 187.166 6.38047 191.326 10.5269 194.672C14.6733 198.019 19.9047 199.869 25.4703 199.867H73.8631C79.4286 199.869 84.7991 198.019 88.9455 194.672C93.0919 191.326 95.7226 187.166 96.3333 182.179Z" fill="url(#paint1_linear_813_1146)"/>
<rect x="29.666" width="40" height="26.6667" rx="2" fill="#2F2E41"/>
<rect x="3" y="64" width="93.3333" height="42.6667" fill="url(#paint2_linear_813_1146)"/>
</g>
<defs>
<linearGradient id="paint0_linear_813_1146" x1="49.6667" y1="26.6667" x2="49.6735" y2="200" gradientUnits="userSpaceOnUse">
<stop stop-color="#E3EBF4"/>
<stop offset="1" stop-color="#9AA6B2"/>
</linearGradient>
<linearGradient id="paint1_linear_813_1146" x1="49.6735" y1="104.734" x2="49.6735" y2="199.867" gradientUnits="userSpaceOnUse">
<stop stop-color="#F94691"/>
<stop offset="1" stop-color="#DA1A80"/>
</linearGradient>
<linearGradient id="paint2_linear_813_1146" x1="49.6667" y1="64" x2="49.6667" y2="106.667" gradientUnits="userSpaceOnUse">
<stop stop-color="#DADEEE"/>
<stop offset="1" stop-color="#CFCBDA"/>
</linearGradient>
<clipPath id="clip0_813_1146">
<rect width="100" height="200" fill="white"/>
</clipPath>
</defs>
</svg>
