<svg width="100" height="75" viewBox="0 0 100 75" fill="none" xmlns="http://www.w3.org/2000/svg">
<path d="M100.001 28.7228C100.001 39.8858 90.9515 48.9352 79.7885 48.9352C68.6255 48.9352 59.5762 39.8858 59.5762 28.7228C59.5762 17.5599 68.6255 8.5105 79.7885 8.5105C90.9515 8.5105 100.001 17.5599 100.001 28.7228ZM69.6823 28.7228C69.6823 34.3043 74.207 38.829 79.7885 38.829C85.37 38.829 89.8947 34.3043 89.8947 28.7228C89.8947 23.1414 85.37 18.6167 79.7885 18.6167C74.207 18.6167 69.6823 23.1414 69.6823 28.7228Z" fill="#F79141"/>
<path d="M73.4027 60.637L76.5942 0H0L3.19142 60.637C3.6224 64.5406 5.58599 67.7808 8.51189 70.4005C11.4378 73.0202 17.2971 74.468 21.2244 74.4665H55.3726C59.2999 74.468 65.1592 73.0202 68.0851 70.4005C71.011 67.7808 72.9718 64.5406 73.4027 60.637Z" fill="url(#paint0_linear_807_3153)"/>
<defs>
<linearGradient id="paint0_linear_807_3153" x1="38.2997" y1="-3.71863e-08" x2="38.2997" y2="74.4665" gradientUnits="userSpaceOnUse">
<stop stop-color="#FFC450"/>
<stop offset="1" stop-color="#F79040"/>
</linearGradient>
</defs>
</svg>
