<svg width="100" height="125" viewBox="0 0 100 125" fill="none" xmlns="http://www.w3.org/2000/svg">
<path d="M70.0625 124.998H29.9382C25.3236 125 20.8707 123.299 17.4327 120.22C13.9948 117.142 11.8136 112.904 11.3072 108.317L0.0386224 6.94364C-0.0589885 6.0697 0.0289262 5.18499 0.29662 4.34735C0.564314 3.50971 1.00576 2.73799 1.59211 2.08262C2.17845 1.42726 2.8965 0.903007 3.69932 0.544133C4.50214 0.185259 5.37165 -0.000157831 6.25103 1.00806e-07H93.7497C94.6285 -6.00199e-05 95.4974 0.185206 96.2997 0.543705C97.1021 0.902204 97.8198 1.42587 98.406 2.08054C98.9923 2.7352 99.4339 3.50614 99.702 4.34302C99.9701 5.17991 100.059 6.06393 99.9621 6.93739L88.6873 108.317C88.181 112.903 86.0007 117.14 82.5641 120.218C79.1274 123.296 74.676 124.998 70.0625 124.998Z" fill="url(#paint0_linear_807_4100)"/>
<path d="M88.6924 108.317L96.5673 37.4994H3.4375L11.3061 108.317C11.8125 112.904 13.9937 117.142 17.4316 120.22C20.8696 123.299 25.3225 125 29.9371 124.998H70.0615C74.676 125 79.129 123.299 82.5669 120.22C86.0049 117.142 88.186 112.904 88.6924 108.317Z" fill="url(#paint1_linear_807_4100)"/>
<defs>
<linearGradient id="paint0_linear_807_4100" x1="50" y1="0" x2="50" y2="124.998" gradientUnits="userSpaceOnUse">
<stop stop-color="#EBF2F9"/>
<stop offset="1" stop-color="#AFAFAF"/>
</linearGradient>
<linearGradient id="paint1_linear_807_4100" x1="50.0024" y1="37.4994" x2="50.0024" y2="124.998" gradientUnits="userSpaceOnUse">
<stop stop-color="#57C6FF"/>
<stop offset="1" stop-color="#00A6FB"/>
</linearGradient>
</defs>
</svg>
