<svg width="100" height="215" viewBox="0 0 100 215" fill="none" xmlns="http://www.w3.org/2000/svg">
<path d="M100 192.705V48.5715C100 37.5258 91.0457 28.5715 80 28.5715H20C8.9543 28.5715 0 37.5258 0 48.5715V192.705C0.654383 198.79 3.62193 203.865 8.06452 207.948C12.5071 212.031 18.1122 214.288 24.0753 214.286H75.9247C81.8878 214.288 87.6419 212.031 92.0845 207.948C96.5271 203.865 99.3456 198.79 100 192.705Z" fill="url(#paint0_linear_807_4185)"/>
<path d="M100 195.192V48.7657C100 45.7239 99.3062 42.7222 97.9714 39.989L97 38H3L2.02865 39.989C0.693814 42.7222 0 45.7239 0 48.7657V195.192C0.654383 200.535 3.62193 204.992 8.06452 208.577C12.5071 212.163 18.1122 214.145 24.0753 214.143H75.9247C81.8878 214.145 87.6419 212.163 92.0845 208.577C96.5271 204.992 99.3456 200.535 100 195.192Z" fill="url(#paint1_linear_807_4185)"/>
<rect x="28.5703" width="42.8571" height="28.5714" rx="2" fill="#2F2E41"/>
<rect y="68.5714" width="100" height="45.7143" fill="url(#paint2_linear_807_4185)"/>
<defs>
<linearGradient id="paint0_linear_807_4185" x1="50" y1="28.5715" x2="50.0073" y2="214.286" gradientUnits="userSpaceOnUse">
<stop stop-color="#E3EBF4"/>
<stop offset="1" stop-color="#9AA6B2"/>
</linearGradient>
<linearGradient id="paint1_linear_807_4185" x1="50.0073" y1="112.215" x2="50.0073" y2="214.143" gradientUnits="userSpaceOnUse">
<stop stop-color="#F94691"/>
<stop offset="1" stop-color="#DA1A80"/>
</linearGradient>
<linearGradient id="paint2_linear_807_4185" x1="50" y1="68.5714" x2="50" y2="114.286" gradientUnits="userSpaceOnUse">
<stop stop-color="#DADEEE"/>
<stop offset="1" stop-color="#CFCBDA"/>
</linearGradient>
</defs>
</svg>
