<svg width="100" height="100" viewBox="0 0 100 100" fill="none" xmlns="http://www.w3.org/2000/svg">
<path d="M81 0C87.9956 0 93.6667 5.59648 93.6667 12.5C93.6667 19.4035 87.9956 25 81 25C74.0044 25 68.3333 19.4035 68.3333 12.5C68.3333 5.59648 74.0044 0 81 0ZM90.5 28.125H88.2517C83.7568 30.1646 78.437 30.2527 73.7483 28.125H71.5C66.2532 28.125 62 32.3223 62 37.5V64.0625C62 66.6514 64.1266 68.75 66.75 68.75H69.9167V95.3125C69.9167 97.9014 72.0433 100 74.6667 100H87.3333C89.9567 100 92.0833 97.9014 92.0833 95.3125V68.75H95.25C97.8734 68.75 100 66.6514 100 64.0625V37.5C100 32.3223 95.7468 28.125 90.5 28.125Z" fill="#2F2E41"/>
<path d="M23.4999 0C30.4213 0 36.0322 5.59648 36.0322 12.5C36.0322 19.4035 30.4213 25 23.4999 25C16.5786 25 10.9677 19.4035 10.9677 12.5C10.9677 5.59648 16.5786 0 23.4999 0ZM46.8575 69.1756L37.4583 31.6756C37.2041 30.6614 36.6173 29.7611 35.7913 29.1178C34.9652 28.4745 33.9472 28.125 32.8991 28.125H30.6746C26.2275 30.1646 20.9641 30.2527 16.3252 28.125H14.1008C13.0527 28.125 12.0347 28.4745 11.2086 29.1178C10.3825 29.7611 9.79576 30.6614 9.54156 31.6756L0.142383 69.1756C-0.598194 72.1299 1.64351 75 4.70157 75H15.6673V95.3125C15.6673 97.9014 17.7713 100 20.3669 100H26.633C29.2285 100 31.3326 97.9014 31.3326 95.3125V75H42.2983C45.3513 75 47.5993 72.1346 46.8575 69.1756Z" fill="#2F2E41"/>
</svg>
