<svg width="100" height="100" viewBox="0 0 100 100" fill="none" xmlns="http://www.w3.org/2000/svg">
<path d="M49.665 54.8731C62.6039 54.8731 73.1016 44.3755 73.1016 31.4366C73.1016 18.4976 62.6039 8 49.665 8C36.7261 8 26.2284 18.4976 26.2284 31.4366C26.2284 44.3755 36.7261 54.8731 49.665 54.8731ZM70.4975 60.0813H61.5298C57.9166 61.7413 53.8966 62.6853 49.665 62.6853C45.4334 62.6853 41.4297 61.7413 37.8002 60.0813H28.8325C17.3258 60.0813 8 69.4071 8 80.9138V83.5178C8 87.8308 11.4992 91.33 15.8122 91.33H83.5178C87.8308 91.33 91.33 87.8308 91.33 83.5178V80.9138C91.33 69.4071 82.0042 60.0813 70.4975 60.0813Z" fill="#2F2E41"/>
</svg>
