<svg width="100" height="100" viewBox="0 0 100 100" fill="none" xmlns="http://www.w3.org/2000/svg">
<path fill-rule="evenodd" clip-rule="evenodd" d="M75.0001 11.4583C73.2742 11.4583 71.8751 10.0592 71.8751 8.33331C71.8751 6.60742 73.2742 5.20831 75.0001 5.20831H91.6668C92.9307 5.20831 94.0702 5.96969 94.5539 7.13743C95.0376 8.30516 94.7702 9.64928 93.8765 10.543L82.5445 21.875H91.6668C93.3927 21.875 94.7918 23.2741 94.7918 25C94.7918 26.7259 93.3927 28.125 91.6668 28.125H75.0001C73.7361 28.125 72.5967 27.3636 72.113 26.1959C71.6293 25.0281 71.8966 23.684 72.7904 22.7903L84.1223 11.4583H75.0001ZM56.2501 36.4583C54.5242 36.4583 53.1251 35.0592 53.1251 33.3333C53.1251 31.6074 54.5242 30.2083 56.2501 30.2083H68.7501C70.014 30.2083 71.1535 30.9697 71.6372 32.1374C72.1209 33.3052 71.8535 34.6493 70.9598 35.543L63.7945 42.7083H68.7501C70.476 42.7083 71.8751 44.1074 71.8751 45.8333C71.8751 47.5592 70.476 48.9583 68.7501 48.9583H56.2501C54.9861 48.9583 53.8467 48.1969 53.363 47.0292C52.8793 45.8615 53.1466 44.5173 54.0404 43.6236L61.2057 36.4583H56.2501Z" fill="#2F2E41"/>
<path d="M49.9997 91.6667C73.0115 91.6667 91.6664 73.0118 91.6664 50C91.6664 48.0721 88.7769 47.7535 87.7798 49.4035C83.037 57.2526 74.4228 62.5 64.583 62.5C49.6253 62.5 37.4997 50.3744 37.4997 35.4166C37.4997 25.5769 42.7471 16.9627 50.5962 12.2198C52.2462 11.2228 51.9276 8.33331 49.9997 8.33331C26.9878 8.33331 8.33301 26.9881 8.33301 50C8.33301 73.0118 26.9878 91.6667 49.9997 91.6667Z" fill="#2F2E41"/>
</svg>
