<svg width="100" height="100" viewBox="0 0 100 100" fill="none" xmlns="http://www.w3.org/2000/svg">
<path d="M70.833 50C70.833 61.5059 61.5056 70.8333 49.9997 70.8333C38.4937 70.8333 29.1663 61.5059 29.1663 50C29.1663 38.494 38.4937 29.1666 49.9997 29.1666C61.5056 29.1666 70.833 38.494 70.833 50Z" fill="#2F2E41"/>
<path fill-rule="evenodd" clip-rule="evenodd" d="M49.9997 5.20831C51.7256 5.20831 53.1247 6.60742 53.1247 8.33331V16.6666C53.1247 18.3925 51.7256 19.7916 49.9997 19.7916C48.2738 19.7916 46.8747 18.3925 46.8747 16.6666V8.33331C46.8747 6.60742 48.2738 5.20831 49.9997 5.20831ZM15.2857 15.4837C16.4503 14.2099 18.427 14.1214 19.7007 15.286L28.9591 23.751C30.2329 24.9155 30.3214 26.8922 29.1568 28.166C27.9922 29.4397 26.0155 29.5282 24.7418 28.3636L15.4834 19.8987C14.2096 18.7341 14.1211 16.7574 15.2857 15.4837ZM84.7136 15.4837C85.8782 16.7574 85.7897 18.7341 84.516 19.8987L75.2576 28.3636C73.9838 29.5282 72.0072 29.4397 70.8426 28.166C69.678 26.8922 69.7665 24.9155 71.0402 23.751L80.2986 15.286C81.5724 14.1214 83.549 14.2099 84.7136 15.4837ZM5.20801 50C5.20801 48.2741 6.60712 46.875 8.33301 46.875H16.6663C18.3922 46.875 19.7913 48.2741 19.7913 50C19.7913 51.7259 18.3922 53.125 16.6663 53.125H8.33301C6.60712 53.125 5.20801 51.7259 5.20801 50ZM80.208 50C80.208 48.2741 81.6071 46.875 83.333 46.875H91.6664C93.3922 46.875 94.7914 48.2741 94.7914 50C94.7914 51.7259 93.3922 53.125 91.6664 53.125H83.333C81.6071 53.125 80.208 51.7259 80.208 50ZM70.9393 70.9382C72.1598 69.7179 74.1384 69.7181 75.3588 70.9385L84.6172 80.198C85.8375 81.4185 85.8374 83.3971 84.6169 84.6175C83.3964 85.8378 81.4178 85.8377 80.1975 84.6172L70.9391 75.3577C69.7188 74.1372 69.7189 72.1586 70.9393 70.9382ZM29.0608 70.9389C30.2812 72.1593 30.2812 74.1379 29.0608 75.3583L19.8015 84.6176C18.5811 85.8379 16.6025 85.8379 15.3821 84.6176C14.1617 83.3972 14.1617 81.4185 15.3821 80.1981L24.6414 70.9389C25.8618 69.7185 27.8404 69.7185 29.0608 70.9389ZM49.9997 80.2083C51.7256 80.2083 53.1247 81.6074 53.1247 83.3333V91.6667C53.1247 93.3925 51.7256 94.7917 49.9997 94.7917C48.2738 94.7917 46.8747 93.3925 46.8747 91.6667V83.3333C46.8747 81.6074 48.2738 80.2083 49.9997 80.2083Z" fill="#2F2E41"/>
</svg>
