<svg width="100" height="100" viewBox="0 0 100 100" fill="none" xmlns="http://www.w3.org/2000/svg">
<path d="M16.3521 77.5303L22.47 83.6482C25.3539 86.5322 26.7959 87.9742 28.5878 87.9742C30.3797 87.9742 31.8217 86.5322 34.7057 83.6482L36.2351 82.1187L37.7646 83.6482L40.8235 86.7071C43.6825 89.5661 45.1119 90.9955 46.7914 91.4455C47.8916 91.7403 49.0501 91.7404 50.1503 91.4455C51.8298 90.9955 53.2593 89.5661 56.1182 86.7071C58.9771 83.8482 60.4066 82.4188 60.8566 80.7393C61.1514 79.639 61.1514 78.4806 60.8566 77.3803C60.4066 75.7009 58.9771 74.2714 56.1182 71.4125L51.5298 66.8241L66.8244 51.5294L71.4128 56.1178C74.2718 58.9768 75.7012 60.4062 77.3807 60.8562C78.4809 61.151 79.6394 61.151 80.7396 60.8562C82.4191 60.4062 83.8486 58.9768 86.7075 56.1178C89.5664 53.2589 90.9959 51.8294 91.4459 50.15C91.7407 49.0497 91.7407 47.8913 91.4459 46.791C90.9959 45.1116 89.5664 43.6821 86.7075 40.8232L83.6486 37.7643L82.1028 36.2511L83.6486 34.7053C86.5325 31.8213 87.9745 30.3793 87.9745 28.5875C87.9745 26.7956 86.5325 25.3536 83.6486 22.4696L77.5307 16.3517C74.6467 13.4678 73.2047 12.0258 71.4128 12.0258C69.621 12.0258 68.179 13.4678 65.295 16.3517L63.7655 17.8812L59.1771 13.2928C56.3182 10.4339 54.8887 9.00443 53.2093 8.55442C52.109 8.25961 50.9506 8.25961 49.8503 8.55442C48.1709 9.00443 46.7414 10.4339 43.8825 13.2928C41.0235 16.1517 39.5941 17.5812 39.1441 19.2607C38.8493 20.3609 38.8493 21.5194 39.1441 22.6196C39.5941 24.2991 41.0235 25.7285 43.8825 28.5875L48.4709 33.1759L33.1762 48.4705L28.5878 43.8821C25.7289 41.0232 24.2994 39.5937 22.62 39.1437C21.5197 38.8489 20.3613 38.8489 19.261 39.1437C17.5816 39.5937 16.1521 41.0232 13.2932 43.8821C10.4342 46.741 9.00478 48.1705 8.55476 49.85C8.25996 50.9502 8.25996 52.1087 8.55476 53.2089C9.00478 54.8884 10.4342 56.3178 13.2932 59.1768L17.8816 63.7652L16.3521 65.2946C13.4681 68.1786 12.0261 69.6206 12.0261 71.4125C12.0261 73.2044 13.4681 74.6464 16.3521 77.5303Z" fill="#2F2E41"/>
</svg>
